<svg xmlns="http://www.w3.org/2000/svg" viewBox="0 0 64 64" stroke="#FFE805" fill="#FFE805" stroke-width="4" stroke-linecap="round" stroke-linejoin="round">
  <circle cx="32" cy="32" r="32" fill="#29629F" stroke-width="0"/>
  <path d="M13 31 h-8 l27 -27 l27 27 h-8 v24 h-12 v-17 h-14 v17 h-12z" stroke="#EE1B24" fill="#EE1B24" stroke-width="1"/>
  <path d="M16 28 a7 7 0 0 1 7 -7a7 7 0 0 1 -7 -7a7 7 0 0 1 -7 7a7 7 0 0 1 7 7z"/>
  <path d="M24 57 a9 9 0 0 1 9 -9a9 9 0 0 1 -9 -9a9 9 0 0 1 -9 9a9 9 0 0 1 9 9z"/>
  <path d="M46 36 a11 11 0 0 1 11 -11a11 11 0 0 1 -11 -11a11 11 0 0 1 -11 11a11 11 0 0 1 11 11z"/>
</svg>