<svg xmlns="http://www.w3.org/2000/svg" viewBox="-8 -8 80 80" stroke="#ffc600" fill="#ffc600" stroke-width="3" stroke-linecap="round" stroke-linejoin="round">
    <circle cx="32" cy="32" r="32" fill="#9b5c8d" stroke-width="0"/>
    <path d="M 15,31 H 7 L 32,8 57,31 H 49 V 54 H 39 V 38 H 25 V 54 H 15 Z" stroke="#33002a" fill="#33002a" stroke-width="3"/>
    <path d="M16 28 a6 6 0 0 1 6 -6a6 6 0 0 1 -6 -6a6 6 0 0 1 -6 6a6 6 0 0 1 6 6z"/>
    <path d="M24 57 a8 8 0 0 1 8 -8a8 8 0 0 1 -8 -8a8 8 0 0 1 -8 8a8 8 0 0 1 8 8z"/>
    <path d="M46 36 a11 11 0 0 1 11 -11a11 11 0 0 1 -11 -11a11 11 0 0 1 -11 11a11 11 0 0 1 11 11z"/>
</svg>